/* XPM */
static char *_7f77986467742e2e7ba1c8d9201c153UC5hTdUTT7yuGYGY[] = {
/* columns rows colors chars-per-pixel */
"16 16 13 1 ",
"  c None",
". c #1C0715",
"X c #3C1B34",
"o c #63133B",
"O c #CC062B",
"+ c #804813",
"@ c #9E5524",
"# c #F24D3E",
"$ c #8C0B44",
"% c #BF8943",
"& c #FFCC66",
"* c #FAFF95",
"= c white",
/* pixels */
"                ",
"         ++X    ",
"        +&%%X   ",
"       +&O=@%X  ",
"       X*##o%.  ",
"       .*$o$&.  ",
"       .=**&.   ",
"      X=@...    ",
"     +*%.       ",
"    +&%.        ",
"   X&+.         ",
"  .&+%&X        ",
"  .%+&==X       ",
"   ..+*X        ",
"     ..         ",
"                "
};
