/* XPM */
static char *_ae35b9f3ef645b8991dcfcd3ca63abdXRhLkNRJFNuPwHZt[] = {
/* columns rows colors chars-per-pixel */
"32 32 216 2 ",
"   c #0D0D2D",
".  c #13142D",
"X  c #0E0E30",
"o  c #0D1033",
"O  c #121331",
"+  c #171837",
"@  c #141539",
"#  c #1B1B3C",
"$  c #191B3B",
"%  c #221F3E",
"&  c #292C3D",
"*  c #24263F",
"=  c #33373F",
"-  c #1E1D42",
";  c #242443",
":  c #2B2C44",
">  c #2D2D4C",
",  c #272747",
"<  c #302F4E",
"1  c #323544",
"2  c #363A44",
"3  c #393E45",
"4  c #33344B",
"5  c #36394D",
"6  c #393C4C",
"7  c #272951",
"8  c #2A2C53",
"9  c #2E2F5B",
"0  c #302E53",
"q  c #2E3057",
"w  c #2E3059",
"e  c #343454",
"r  c #383554",
"t  c #373952",
"y  c #3A3B53",
"u  c #34345B",
"i  c #3A375A",
"p  c #3C3C5C",
"a  c #242968",
"s  c #2B326D",
"d  c #363662",
"f  c #363862",
"g  c #3B3C63",
"h  c #3C3D6C",
"j  c #34356D",
"k  c #272D74",
"l  c #2E3374",
"z  c #2F367D",
"x  c #32367A",
"c  c #353A7B",
"v  c #393D7C",
"b  c #383B74",
"n  c #413E58",
"m  c #423F62",
"M  c #3E424A",
"N  c #3F4153",
"B  c #3D406B",
"V  c #3F4177",
"C  c #42464E",
"Z  c #44494F",
"A  c #434455",
"S  c #464A54",
"D  c #4A4D54",
"F  c #44455B",
"G  c #46485C",
"H  c #494C5A",
"J  c #49465A",
"K  c #53555C",
"L  c #55585F",
"P  c #4C5059",
"I  c #444464",
"U  c #4B4C63",
"Y  c #43436A",
"T  c #4A4B6C",
"R  c #484868",
"E  c #4F5065",
"W  c #4F516B",
"Q  c #525362",
"!  c #5B5E64",
"~  c #54536B",
"^  c #5A5D6B",
"/  c #575966",
"(  c #424474",
")  c #484774",
"_  c #474873",
"`  c #4C4D74",
"'  c #42437B",
"]  c #4C4C7C",
"[  c #46497D",
"{  c #504F79",
"}  c #4F527F",
"|  c #5A5A76",
" . c #54547A",
".. c #5B5C78",
"X. c #5E616C",
"o. c #5E6170",
"O. c #66696F",
"+. c #63656E",
"@. c #666874",
"#. c #343A82",
"$. c #333781",
"%. c #2F3782",
"&. c #3A4288",
"*. c #3B4494",
"=. c #434585",
"-. c #454A82",
";. c #4A4C84",
":. c #474989",
">. c #4A4B8A",
",. c #424588",
"<. c #4D518B",
"1. c #4F5283",
"2. c #525382",
"3. c #54558C",
"4. c #5B5B8D",
"5. c #58588A",
"6. c #444A95",
"7. c #4A4E93",
"8. c #434A9C",
"9. c #4A4E9C",
"0. c #4B5399",
"q. c #515492",
"w. c #5D5D94",
"e. c #5B5E9B",
"r. c #61608A",
"t. c #747483",
"y. c #7B7A8C",
"u. c #77778A",
"i. c #6F709E",
"p. c #7D7C94",
"a. c #7A7599",
"s. c #61639C",
"d. c #4D53A3",
"f. c #4C53AD",
"g. c #5359A2",
"h. c #555CAC",
"j. c #585AA7",
"k. c #5359B3",
"l. c #454DA0",
"z. c #5C62AB",
"x. c #5A63B5",
"c. c #5D65BD",
"v. c #5762B4",
"b. c #6D6BA0",
"n. c #6264AC",
"m. c #686AAC",
"M. c #6466A8",
"N. c #646AB5",
"B. c #696DB4",
"V. c #646BBA",
"C. c #7476B5",
"Z. c #7579BF",
"A. c #7678BC",
"S. c #6D70B7",
"D. c #5F66C0",
"F. c #6A6FC3",
"G. c #6C73C4",
"H. c #6D77C7",
"J. c #7479C5",
"K. c #747ACC",
"L. c #7A7DCA",
"P. c #777AC6",
"I. c #747AD0",
"U. c #807B99",
"Y. c #857FA3",
"T. c #7C81CC",
"R. c #7C81C5",
"E. c #7D85D3",
"W. c #7D83D9",
"Q. c #8181BA",
"!. c #8485CC",
"~. c #8889C3",
"^. c #8B91CF",
"/. c #8086D3",
"(. c #898EDB",
"). c #838AD8",
"_. c #8C93D2",
"`. c #8D93DD",
"'. c #9296D6",
"]. c #9195DC",
"[. c #9399D8",
"{. c #8A91E1",
"}. c #979CE5",
"|. c #949FF1",
" X c #95A0F0",
".X c #ADB1EB",
"XX c #ADB0E7",
"oX c #B2B5E6",
"OX c #B1B3EC",
"+X c #BABCEA",
"@X c #BABAE8",
"#X c #BABDF0",
"$X c #C1BFE7",
"%X c #C0BCEF",
"&X c #BEC1F4",
"*X c #CAC9ED",
"=X c #D0CCEF",
"-X c #D9DAEF",
";X c #D9D7ED",
":X c #D3CDF2",
">X c #D4CCFB",
",X c #CCD1F6",
"<X c #D3D6F5",
"1X c #DBDBF0",
"2X c #D3D4FC",
"3X c #D7DAFB",
"4X c #DCDEFD",
"5X c #DEE1FF",
"6X c #DDE2F6",
"7X c #FFFFED",
"8X c #E8E8F6",
"9X c #F4F4F3",
"0X c #FDFEF4",
"qX c #F4F4FD",
"wX c #FDFDFD",
"eX c #F7F9F7",
/* pixels */
"D ! @./ ^ t.t.y.y.u.y.y.p.a.Y.a.U.a.a.a.y.p.u.p.u.t.t.+.X.O.! D ",
"K @.L Q @.^ A A n y 5 4 e g i Y g Y i p n 4 J y J J @.@.P ! @.K ",
"O.K D +.X.H ~ ~ ~ m # - f f B Y b h h u # # t ~ ~ ^ J o.@.C K +.",
"L S X.^ G ^ @.~ r 0 2.4.1.;.-.<.q.v -.5.4.r.i % ~ ..~ G ^ X.C K ",
"S / / A ~ ..I T T i.4.V c a k 8.6.z a a =.w.i. .T Y ..E N ^ ^ A ",
"Q Q A U ..T _ 2.` <.m.#.&.0.h.f.8.h.g.7.$.j.q.( } ] Y ..E 6 Q H ",
"Q A H ~ I Y 1.s l z d.8.E.`.{.k.c.).}./.8.x.k s j [ _ I ~ J 1 H ",
"Q J J n Y ] b s #.*.k.c.J.}.).E.W.(.`.K.D.f.8.&.a b ) m t A J U ",
"Q G 1 . h j l x f.L.F.K.].oX$X>X:X%X+X[.I.F.T.h.#.l j u ; F G U ",
"U F 4 O u e.0.0.Z.{.].oX,X3X1XqXqX1X6X<X.X'.[.T.g.7.s.d $ I : G ",
"W t O q ] x N.v.G.(.OX3XwXwXqXwXwXqXwXwX3XOX_.G.x.N.x ;.g   $ F ",
"I I X f :.z *.x.W..X3X1XqXwXeXwXwXwXwX9X8X5X.X).c.*.#.>.V - # G ",
"I p $ ] v *.h.H.^.,XwXeXwX0X0XwXeXwX0X7XeXwX*X_.H.v.6.k ;.7 O y ",
"R e w ' v 9.V. X+X4XwX0X0XwXwXwXwXwXwX0XwXwX6X&X|.H.d.l q.h , p ",
"g Y 9 3.x 9.K.E.@X3XqXwXwXwXwXwXwXwXwXwXwXqX-X@XE.J.g.x <.] u i ",
"g 9 h ;.m.P.L./.:XqXwXwXwX0X0X0X7XwXwXwXwXwXwX:X`.Z.T.B.>.( f e ",
"p u f v #.8.h.E.:XwXwX0XwXwXwX0X0X0XwXwXwXwXwX=XE.x.l.%.&.( e u ",
"i u u -.#.d.G.{.*X;X9X0X0XwXwXeXeXwXwXeXwX9X-X*X{.H.d.#.e.h e r ",
"i > u [ ,.z.d.(.OX3XwXwXwXwXwXwXwXwXwXwXwXwX4X+X).V.h.x <.f , 4 ",
"I > o ( ;.7.N.E._.2XwX9XwXwXwXwXwXwXwXwX9XwX2X'.).g.z.:.2.@ + t ",
"> t   8 3.,.n.(.T.XX5X8XwXwXwXeXeXwXwX0X8X4XXX!.`.B.&.w.d O , 4 ",
"t : . # ] ;.n.g.H.].+X<XwXwXqXwXwX9XwXwX<X#X].J.6.S.>.5.; ; ; t ",
"t : U O 7 ' ,.g.N.P.'.XX2X4X1XwXwX-X4X2XOX].P.N.n.c ' d O t ~ > ",
"t 4 U 4 u ' M.7.J.N.T.].'.oX$X*X=X@XoX[.}./.V.J.7.m.;.u ; ~ I 4 ",
"4 5 U T ` { ] b.7.B.L.J.).(.].].].}.).].Z.Z.C.q.b.5.]  .I U ~ : ",
"6 & U U R  .) ] C.q.j.7.L.n.R.R.T.Z.N.J.7.m.:.A.4.] ` R T E N 1 ",
"M G A G R T  .` h ] ;.M.M.!.C.z.n.L.!.m.e.>.b ;.]  .R T G A H 1 ",
"2 S H A G R I ` e u ] b.Q.~.C.:.=.A.Q.~.Q.] h d T R W G y S S 2 ",
"M M S H N F U I > + - 8 h 2.w.;.3.w.2._ q -   ; I R G 6 S H M C ",
"D D 3 S H A U y G F e @ @ 8 ( h h f f   O ; F ~ t N N H D M Z D ",
"M M S M S S & 4 y 5 : ; ; 8 8 7 7 8 > ; ; * 4 5 y & H S 3 Z M S ",
"3 M S C = 1 6 6 t y t t p e e p f p u e t t t t 5 5 2 1 M D C = "
};
